<?xml version="1.0" encoding="utf-8"?>
<!-- Generator: Adobe Illustrator 25.4.6, SVG Export Plug-In . SVG Version: 6.00 Build 0)  -->
<svg version="1.1" id="Layer_1" xmlns="http://www.w3.org/2000/svg" xmlns:xlink="http://www.w3.org/1999/xlink" x="0px" y="0px"
	 viewBox="0 0 95 95" style="enable-background:new 0 0 95 95;" xml:space="preserve">
<style type="text/css">
	.st0{fill:#FFFFFF;}
	.st1{fill:#1F2229;}
</style>
<g id="Layer_2_00000178896033714307928650000012948017102446806146_">
</g>
<g id="Layer_1_00000047780043995949064040000017056691024219976374_">
	<path class="st0" d="M47.5,1.6C22.2,1.6,1.6,22.2,1.6,47.5s20.6,45.9,45.9,45.9s45.9-20.6,45.9-45.9S72.8,1.6,47.5,1.6z"/>
</g>
<path class="st1" d="M69.2,49.5L40.4,66.1l0,0c-0.6,0.3-1.3,0.3-1.9,0c-0.6-0.3-0.9-0.9-0.9-1.6V31.3c0-0.7,0.4-1.3,0.9-1.6
	c0.6-0.3,1.3-0.3,1.9,0l28.8,16.6l0,0c0.6,0.3,0.9,0.9,0.9,1.6C70.1,48.6,69.8,49.2,69.2,49.5L69.2,49.5z"/>
</svg>
